<svg xmlns="http://www.w3.org/2000/svg" xmlns:xlink="http://www.w3.org/1999/xlink" width="256" height="256" viewBox="0 0 256 256" xml:space="preserve"><defs></defs><g style="stroke: none; stroke-width: 0; stroke-dasharray: none; stroke-linecap: butt; stroke-linejoin: miter; stroke-miterlimit: 10; fill: none; fill-rule: nonzero; opacity: 1;" transform="translate(1.4065934065934016 1.4065934065934016) scale(2.81 2.81)">	<path d="M 45 22.748 c 5.714 0 10.362 4.648 10.362 10.362 v 4.792 c 0 5.714 -4.648 10.362 -10.362 10.362 c -5.714 0 -10.362 -4.648 -10.362 -10.362 V 33.11 C 34.638 27.396 39.286 22.748 45 22.748 M 45 19.748 L 45 19.748 c -7.349 0 -13.362 6.013 -13.362 13.362 v 4.792 c 0 7.349 6.013 13.362 13.362 13.362 h 0 c 7.349 0 13.362 -6.013 13.362 -13.362 V 33.11 C 58.362 25.761 52.349 19.748 45 19.748 L 45 19.748 z" style="stroke: none; stroke-width: 1; stroke-dasharray: none; stroke-linecap: butt; stroke-linejoin: miter; stroke-miterlimit: 10; fill: rgb(0,157,224); fill-rule: nonzero; opacity: 1;" transform=" matrix(1 0 0 1 0 0) " stroke-linecap="round"></path>	<path d="M 52.962 56.221 c 8.314 1.672 14.478 9.109 14.478 17.657 V 87 H 22.56 V 73.878 c 0 -8.548 6.164 -15.986 14.478 -17.657 c 2.521 1.144 5.195 1.723 7.962 1.723 S 50.44 57.365 52.962 56.221 M 52.524 53.1 c -2.26 1.17 -4.815 1.844 -7.524 1.844 s -5.263 -0.674 -7.524 -1.844 C 27.374 54.607 19.56 63.374 19.56 73.878 V 87.7 c 0 1.265 1.035 2.3 2.3 2.3 h 46.28 c 1.265 0 2.3 -1.035 2.3 -2.3 V 73.878 C 70.44 63.374 62.626 54.607 52.524 53.1 L 52.524 53.1 z" style="stroke: none; stroke-width: 1; stroke-dasharray: none; stroke-linecap: butt; stroke-linejoin: miter; stroke-miterlimit: 10; fill: rgb(0,157,224); fill-rule: nonzero; opacity: 1;" transform=" matrix(1 0 0 1 0 0) " stroke-linecap="round"></path>	<path d="M 82.913 3 C 85.167 3 87 4.833 87 7.087 v 5.574 c 0 2.253 -1.833 4.087 -4.087 4.087 h -9.378 h -0.599 l -0.553 0.23 l -3.147 1.309 l 1.038 -1.539 h -5.642 h -5.085 c -2.253 0 -4.087 -1.833 -4.087 -4.087 V 7.087 C 55.462 4.833 57.295 3 59.548 3 H 82.913 M 82.913 0 H 59.548 c -3.898 0 -7.087 3.189 -7.087 7.087 v 5.574 c 0 3.898 3.189 7.087 7.087 7.087 h 5.085 l -3.471 5.147 l 12.374 -5.147 h 9.378 c 3.898 0 7.087 -3.189 7.087 -7.087 V 7.087 C 90 3.189 86.811 0 82.913 0 L 82.913 0 z" style="stroke: none; stroke-width: 1; stroke-dasharray: none; stroke-linecap: butt; stroke-linejoin: miter; stroke-miterlimit: 10; fill: rgb(0,157,224); fill-rule: nonzero; opacity: 1;" transform=" matrix(1 0 0 1 0 0) " stroke-linecap="round"></path></g></svg>