<svg xmlns="http://www.w3.org/2000/svg" viewBox="0 0 405.02 364.24"><defs><style>.cls-1{fill:#fff;}.cls-2{fill:#0f485b;}.cls-3{fill:#0a6a86;}.cls-4{fill:#311333;}.cls-5{fill:#010101;}.cls-6{fill:#14171a;}.cls-7{fill:#009de0;}.cls-8{fill:#4a494a;}.cls-9{fill:#02509c;}.cls-10{fill:#f7b573;}.cls-11{fill:#5f6062;}.cls-12{fill:#e4a86b;}.cls-13{fill:#bc8558;}.cls-14{fill:#1d1e1c;}.cls-15{fill:#683c20;}.cls-16{fill:#8f5331;}.cls-17{fill:#5e5e5d;}.cls-18{fill:#1376a0;}.cls-19{fill:#4e4d4e;}.cls-20{fill:#2a2a2a;}.cls-21{fill:#363536;}.cls-22{fill:#a16442;}.cls-23{fill:#754a32;}.cls-24{fill:#865439;}.cls-25{fill:#633e2a;}.cls-26{fill:#c1754e;}.cls-27{fill:#925c3d;}</style></defs><g id="Laag_2" data-name="Laag 2"><g id="Laag_1-2" data-name="Laag 1"><rect class="cls-1" x="174.2" y="272.55" width="9.97" height="9.97"></rect><rect class="cls-1" x="190.42" y="272.55" width="9.97" height="9.97"></rect><rect class="cls-1" x="174.2" y="288.72" width="9.97" height="9.97"></rect><rect class="cls-1" x="190.42" y="288.72" width="9.97" height="9.97"></rect><rect class="cls-1" x="316.32" y="263.23" width="7.03" height="7.03"></rect><rect class="cls-1" x="316.32" y="274.42" width="7.03" height="7.03"></rect><rect class="cls-1" x="328.01" y="263.23" width="7.03" height="7.03"></rect><rect class="cls-1" x="328.01" y="274.42" width="7.03" height="7.03"></rect><path class="cls-1" d="M28.46,226.1H288.93v-7.85H28.46Z"></path><path class="cls-1" d="M284.79,226.1h99.56v-7.85H284.79Z"></path><path class="cls-1" d="M1.7,218.19H403.32v-7.85H1.7Z"></path><path class="cls-1" d="M280.34,218.19h123v-7.85h-123Z"></path><path class="cls-1" d="M332.81,161.69a1.69,1.69,0,0,1-1.7-1.68l0-3.81a1.71,1.71,0,0,1,1.68-1.72l4.23,0h0a1.7,1.7,0,0,1,1.7,1.68l0,3.81a1.71,1.71,0,0,1-1.68,1.72l-4.23,0Zm1.68-3.83v.42h.83v-.41Z"></path><path class="cls-1" d="M325.7,161.76a1.69,1.69,0,0,1-1.7-1.68l0-3.81a1.7,1.7,0,0,1,1.68-1.72l4.23,0a1.61,1.61,0,0,1,1.21.49,1.71,1.71,0,0,1,.51,1.2l0,3.8a1.68,1.68,0,0,1-.48,1.21,1.71,1.71,0,0,1-1.2.51l-4.23,0Zm1.67-3.82v.41h.83v-.41Z"></path><path class="cls-2" d="M257.92,252c-4.25,17.7,6.54,32,24.1,32h41.09c17.56,0,35.22-14.34,39.47-32L379.4,181.8c4.25-17.7-6.54-32.05-24.09-32.05h-41.1c-17.55,0-35.22,14.35-39.47,32.05Z"></path><path class="cls-3" d="M250.52,253.76c-4.24,17.7,6.55,32.05,24.1,32.05h41.1c17.55,0,35.22-14.35,39.46-32.05L372,183.6c4.24-17.7-6.55-32-24.1-32h-41.1c-17.55,0-35.22,14.34-39.46,32Z"></path><path class="cls-4" d="M355,287.62a4.29,4.29,0,0,1-4.29,4.29h-107a4.29,4.29,0,1,1,0-8.58h107a4.29,4.29,0,0,1,4.29,4.29"></path><path class="cls-5" d="M293.2,362.88V309.45a9.88,9.88,0,0,0-9.86-9.87H255.85a9.88,9.88,0,0,0-9.86,9.87v53.43h-7.67V309.45a17.53,17.53,0,0,1,17.53-17.54h27.49a17.54,17.54,0,0,1,17.54,17.54v53.43Z"></path><path class="cls-6" d="M345.81,362.88V309.45a9.88,9.88,0,0,0-9.86-9.87h-27.5a9.88,9.88,0,0,0-9.86,9.87v53.43h-7.67V309.45a17.53,17.53,0,0,1,17.53-17.54H336a17.53,17.53,0,0,1,17.53,17.54v53.43Z"></path><path class="cls-7" d="M252.91,240.86a12.37,12.37,0,0,1,8.92-3.8l107.94,0v2.34a22.41,22.41,0,0,1-22.42,22.42l-73.46,0v75.58a12.39,12.39,0,1,1-24.77,0V249.77a12.37,12.37,0,0,1,3.79-8.91"></path><path class="cls-8" d="M243.89,337.46h29.93a12.21,12.21,0,0,1,.62,3.84c0,6.84-4.36,11.48-8.32,11.48H236.18c-4.46-.3-4.67-1.59-4.67-2.93a12.39,12.39,0,0,1,12.38-12.39"></path><path class="cls-7" d="M279.32,240.42a12.34,12.34,0,0,1,8.92-3.81l63.36.48,12.32,9.28c0,12.39-30.81,14.89-43.19,14.89l-20.44.12V337a12.39,12.39,0,0,1-24.77,0V249.33a12.33,12.33,0,0,1,3.8-8.91"></path><path class="cls-8" d="M268.28,337.51h30.5s.05,2.49.05,3.83v11.49H260.57c-4.45-.31-4.67-1.6-4.67-2.94a12.38,12.38,0,0,1,12.38-12.38"></path><path class="cls-9" d="M265.22,172.74a10.75,10.75,0,0,1-6.2-14.21,11.5,11.5,0,0,1,14.8-5.95,10.75,10.75,0,0,1,6.2,14.21A11.51,11.51,0,0,1,265.22,172.74Z"></path><polygon class="cls-7" points="265.22 172.74 287.97 181.69 269.52 162.66 265.22 172.74"></polygon><polygon class="cls-10" points="365.62 235.43 365.62 249.4 365.62 259.19 359.98 267.2 351.49 267.2 351.49 263.46 355.9 263.46 358.48 259.19 358.48 249.4 354.67 249.4 354.67 255.84 353.94 262.29 350.06 262.29 349.33 255.84 349.33 249.4 349.33 235.43 365.62 235.43"></polygon><path class="cls-10" d="M346.88,201.3a10.24,10.24,0,1,0,10.24-9.84A10,10,0,0,0,346.88,201.3Z"></path><polygon class="cls-10" points="345.78 162.66 368.46 162.66 367.35 201.3 357.12 201.3 346.88 201.3 345.78 162.66"></polygon><polygon class="cls-7" points="345.78 162.66 368.46 162.66 368.81 197.79 357.12 197.79 345.42 197.79 345.78 162.66"></polygon><polygon class="cls-10" points="349.33 235.82 365.62 235.82 367.35 201.3 357.12 201.3 346.88 201.3 349.33 235.82"></polygon><path class="cls-7" d="M345.77,162.66a11.35,11.35,0,1,0,11.34-10.9A11.12,11.12,0,0,0,345.77,162.66Z"></path><polygon class="cls-10" points="272.9 152.27 266.14 173.06 228.07 160.52 231.12 151.13 234.17 141.75 272.9 152.27"></polygon><polygon class="cls-7" points="272.9 152.27 266.14 173.06 231.12 162.9 234.61 152.18 238.1 141.46 272.9 152.27"></polygon><polygon class="cls-10" points="249.81 109.56 236.78 106.5 221.3 148.39 231.12 151.14 240.95 153.88 249.81 109.56"></polygon><path class="cls-7" d="M272.91,152.26a11.45,11.45,0,0,0-14.22,7.15,10.82,10.82,0,0,0,7.45,13.65,11.44,11.44,0,0,0,14.21-7.15A10.83,10.83,0,0,0,272.91,152.26Z"></path><path class="cls-10" d="M241,153.88a9.77,9.77,0,0,0-7-12.18,10.28,10.28,0,0,0-12.68,6.69,9.77,9.77,0,0,0,6.95,12.19A10.31,10.31,0,0,0,241,153.88Z"></path><polygon class="cls-11" points="347.57 220.75 357.12 151.76 338.87 144.4 334.85 141.64 331.26 133.51 313.32 133.51 313.32 133.51 294.58 133.51 291.79 141.63 287.76 144.4 269.52 151.76 279.07 220.75 279.65 230.54 346.99 230.54 347.57 220.75"></polygon><polygon class="cls-12" points="313.32 133.51 303.97 133.51 294.26 134.44 291.79 141.63 313.32 154.47 334.85 141.64 331.77 134.67 322.67 133.51 313.32 133.51"></polygon><rect class="cls-7" x="279.65" y="230.54" width="67.34" height="11.42"></rect><polygon class="cls-7" points="291.79 141.63 287.76 144.4 298.46 160.01 313.32 154.47 291.79 141.63"></polygon><polygon class="cls-7" points="334.85 141.63 338.88 144.4 328.19 160.01 313.32 154.47 334.85 141.63"></polygon><rect class="cls-7" x="309.83" y="154.47" width="6.97" height="23.17"></rect><path class="cls-10" d="M276,78.82c-1.44,10.47-10.14,18-19.42,16.83s-15.2-14-13.76-24.44,9.67-14.65,19-13.47S277.47,68.35,276,78.82Z"></path><path class="cls-10" d="M348.36,88c-1.44,10.47,4.92,19.92,14.21,21.09S381,99.36,382.45,88.89s-5.38-16.56-14.67-17.74S349.79,77.51,348.36,88Z"></path><path class="cls-10" d="M369,82.26c-4.73,34.47-33.49,59.25-64.22,55.36s-51.82-35-47.09-69.46,33.48-59.25,64.22-55.35S373.7,47.79,369,82.26Z"></path><path class="cls-1" d="M325.27,113.71a18.58,18.58,0,0,1-18.41,8.53c-7.71-1-13.7-6.24-15.47-12.82Z"></path><path class="cls-13" d="M309.32,123.06a19.69,19.69,0,0,1-2.54-.16c-7.72-1-14.16-6.32-16-13.31a.68.68,0,0,1,.14-.61.67.67,0,0,1,.59-.23L325.35,113a.69.69,0,0,1,.52.37.66.66,0,0,1,0,.64A19.17,19.17,0,0,1,309.32,123.06Zm-17-12.85c2.05,6,7.8,10.5,14.61,11.36a18.13,18.13,0,0,0,17.19-7.33Z"></path><path class="cls-14" d="M339.74,91.27c-.81,5.89-4.15,10.33-7.46,9.91s-5.35-5.54-4.54-11.43,4.15-10.34,7.47-9.91S340.55,85.37,339.74,91.27Z"></path><path class="cls-14" d="M283.46,84.14c-.8,5.9,1.23,11,4.54,11.43s6.65-4,7.47-9.91-1.23-11-4.54-11.43S284.27,78.25,283.46,84.14Z"></path><polygon class="cls-15" points="304.64 67.08 275.49 63.38 284.94 57.74 304.64 67.08"></polygon><polygon class="cls-15" points="323.88 69.51 353.04 73.2 345.44 65.4 323.88 69.51"></polygon><path class="cls-14" d="M339.74,91.27c-.81,5.89-4.15,10.33-7.46,9.91s-5.35-5.54-4.54-11.43,4.15-10.33,7.47-9.91S340.55,85.37,339.74,91.27Z"></path><path class="cls-16" d="M336.1,27.22S322.76,48.63,272,46.57C272,46.57,316.17,37.49,336.1,27.22Z"></path><path class="cls-16" d="M325.26,23.35s-10.52,12.71-47,10.59C278.3,33.94,310.11,29.54,325.26,23.35Z"></path><path class="cls-16" d="M348.67,30.37s-1,21.41,18,30.06C366.64,60.43,350.24,40.24,348.67,30.37Z"></path><path class="cls-16" d="M352.13,26.44s1.31,18.89,17.56,25.94C369.69,52.38,355.1,35.55,352.13,26.44Z"></path><polygon class="cls-17" points="261.03 61.35 251.09 59 240.47 100.19 250.41 102.54 261.03 61.35"></polygon><polygon class="cls-10" points="236.78 106.5 236.82 99.31 239.24 89.92 246.7 83.55 254.94 85.5 254.01 89.09 249.74 88.07 246.18 91.57 243.76 100.97 250.41 102.54 251.88 96.86 253.59 90.19 255.12 90.55 255.38 97.16 253.79 103.34 249.81 109.56 236.78 106.5"></polygon><path class="cls-15" d="M371.11,56.3c5.68-41.35-48.75-47-48.75-47S268.28,1.21,262.6,42.56L257,78.12l4.51.57,6.42-21.79s37.78,5.48,66.71-15.82c0,0-11.7,15.75-30.22,19.69,0,0,25.19.86,37.18-17.68,0,0,5.83,20.12,20.5,25.74l.3,22.64,4.53.57Z"></path><path class="cls-7" d="M315,63l55.56,7,3.89-25.78-15.35-30S341,2.64,323.58.44s-38,4.54-38,4.54L262.63,30.11,259.43,56Z"></path><path class="cls-18" d="M260.55,56.12c2-14.42,28.05-23.63,58.11-19.82s52.76,19.18,50.77,33.61Z"></path><g id="RGB"><g id="RGB-2" data-name="RGB"><g id="Watermerk_blauw" data-name="Watermerk blauw"><rect class="cls-1" x="326.57" y="170.46" width="5.07" height="5.07"></rect><rect class="cls-1" x="335.14" y="170.46" width="5.07" height="5.07"></rect></g></g><rect class="cls-1" x="326.57" y="179.04" width="5.07" height="5.07"></rect><rect class="cls-1" x="335.14" y="179.04" width="5.07" height="5.07"></rect></g><path class="cls-1" d="M303.6,30.08l.73-5.54c.23-1.79-.58-3.06-2.51-3a3.42,3.42,0,0,0-3.31,3.24l-.71,5.51-1.36.1q.35-2.76.71-5.52c.23-1.85-.62-3-2.52-2.81a3.65,3.65,0,0,0-3.29,3.42L290.65,31l-1.36.19c.39-3.15.79-6.3,1.18-9.45l1.37-.19-.14,1.09A4.49,4.49,0,0,1,294.77,21a3.21,3.21,0,0,1,3.36,1.49,5.1,5.1,0,0,1,3.83-2c2.76-.11,4,1.71,3.75,3.94L305,30.08Z"></path><path class="cls-1" d="M307.53,25.43a5.91,5.91,0,0,1,6.22-4.79,5.08,5.08,0,0,1,4.89,5.49c-.38,2.75-3.24,4.63-6.22,4.43S307.19,28.06,307.53,25.43Zm9.76.49a3.82,3.82,0,0,0-3.68-4.19,4.48,4.48,0,0,0-4.71,3.71,3.7,3.7,0,0,0,3.68,4A4.3,4.3,0,0,0,317.29,25.92Z"></path><path class="cls-1" d="M328.06,32.57l.75-5.26a3.35,3.35,0,0,0-2.78-4A3,3,0,0,0,322.3,26c-.25,1.79-.5,3.57-.74,5.36l-1.35-.2c.44-3.15.87-6.3,1.31-9.45l1.35.2-.17,1.21h0a3.77,3.77,0,0,1,3.43-.9,4.58,4.58,0,0,1,4,5.38l-.75,5.26Z"></path><path class="cls-1" d="M332.85,33.73l1.2-8.35c-.73-.19-1.45-.38-2.18-.55l.16-1.09c.73.18,1.45.36,2.17.56l.48-3.33c.44.11.88.24,1.32.36l-.48,3.33q1.23.35,2.46.72l-.16,1.08q-1.23-.37-2.46-.72l-1.2,8.35Z"></path><path class="cls-1" d="M347.78,38.91l.24-1.65,0,0a4.12,4.12,0,0,1-4.14.31c-3-1.16-5.09-4.06-4.68-6.89s3.22-4.13,6.15-3a6.35,6.35,0,0,1,3.59,3.47l0,0,.25-1.65,1.26.55L349,39.46Zm.77-4.67a5.44,5.44,0,0,0-3.41-5.5c-2.31-.89-4.35.17-4.68,2.4A5.2,5.2,0,0,0,344,36.46C346.23,37.32,348.23,36.36,348.55,34.24Z"></path><rect class="cls-19" x="200.15" y="200.23" width="99.84" height="8.51" rx="2.27"></rect><rect class="cls-20" x="180.3" y="200.23" width="81.87" height="8.51" rx="2.27"></rect><path class="cls-19" d="M210.48,165.63a2,2,0,0,1-2.06,2.27H64.34a2.55,2.55,0,0,1-2.48-2.27L52.07,61.26A2,2,0,0,1,54.13,59H198.21a2.53,2.53,0,0,1,2.48,2.27Z"></path><path class="cls-21" d="M203.67,165.63a2,2,0,0,1-2,2.27H57.53a2.55,2.55,0,0,1-2.48-2.27L45.27,61.26a2,2,0,0,1,2-2.27H191.41a2.54,2.54,0,0,1,2.48,2.27Z"></path><path class="cls-19" d="M150.56,203l-10-107.13a2.53,2.53,0,0,0-2.48-2.27h-36.3a2,2,0,0,0-2.06,2.27l10,107.13Z"></path><path class="cls-20" d="M146,203,136,95.86a2.54,2.54,0,0,0-2.48-2.27H97.24a2,2,0,0,0-2.06,2.27l10,107.13Z"></path><rect class="cls-19" x="105.75" y="200.23" width="99.84" height="8.51" rx="2.27"></rect><rect class="cls-21" x="85.9" y="200.23" width="99.84" height="8.51" rx="2.27"></rect><path class="cls-22" d="M303.4,219.89V364.24H266.88v-22.7A21.92,21.92,0,0,0,245,319.62H73.45a21.92,21.92,0,0,0-21.92,21.92v22.7H26.14V219.89Z"></path><path class="cls-23" d="M386.05,219.89V364.24H371V341.79c0-12.1-8.19-21.92-18.3-21.92h-27c-10.11,0-18.3,9.82-18.3,21.92v22.45H290.05V219.89Z"></path><rect class="cls-24" x="26.76" y="216.55" width="263.87" height="11.25"></rect><rect class="cls-25" x="283.09" y="216.55" width="102.96" height="11.25"></rect><rect class="cls-26" y="208.64" width="405.02" height="11.25"></rect><rect class="cls-27" x="278.64" y="208.64" width="126.39" height="11.25"></rect></g></g></svg>