<svg xmlns="http://www.w3.org/2000/svg" xmlns:xlink="http://www.w3.org/1999/xlink" id="Laag_1" x="0px" y="0px" viewBox="0 0 500 500" style="enable-background:new 0 0 500 500;" xml:space="preserve"><style type="text/css">	.st0{fill:#F7B573;}	.st1{fill:#009DE0;}	.st2{fill:#1376A0;}	.st3{fill:#5F6062;}	.st4{fill:#E4A86B;}	.st5{fill:#4A494A;}	.st6{fill:#FFFFFF;}	.st7{fill:#67543F;}	.st8{fill:#BC8558;}	.st9{opacity:8.000000e-02;}	.st10{opacity:8.000000e-02;fill:#5F6062;}	.st11{fill:#1D1E1C;}	.st12{fill:#76613F;}	.st13{opacity:0.2;}	.st14{fill:#896F47;}	.st15{opacity:0.25;fill:#896F47;}	.st16{fill:#48372D;}	.st17{fill:#3F2A1C;}	.st18{fill:#352315;}	.st19{fill:#824F13;}	.st20{fill:#5E5E5D;}	.st21{fill:#49342A;}	.st22{fill:#77635D;}	.st23{fill:#BB8457;}	.st24{fill:#A96C15;}	.st25{fill:#8D5914;}	.st26{fill:#683C20;}	.st27{fill:#BF9675;}	.st28{opacity:0.91;}	.st29{fill:#EFEFEF;}	.st30{fill:#AE8C73;}	.st31{opacity:0.4;fill:#B79678;}	.st32{fill:#B79678;}	.st33{display:none;fill:#C0BFBE;}	.st34{display:none;}	.st35{display:inline;fill:#009EE2;}	.st36{display:inline;fill:#1777A0;}	.st37{display:inline;}	.st38{display:inline;clip-path:url(#XMLID_00000084489182639165742290000013522696569981844353_);}	.st39{fill:#C0BFBE;}	.st40{opacity:0.6;}	.st41{fill:#757270;}	.st42{display:inline;fill:#C0BFBE;}	.st43{fill:#4F3B2A;}	.st44{fill:#F1971C;}	.st45{fill:#8F5331;}	.st46{fill:#191919;}	.st47{fill-rule:evenodd;clip-rule:evenodd;fill:#F1971C;}	.st48{fill:#D0C07C;}	.st49{fill:#121111;}	.st50{fill:#F8B572;}	.st51{fill:#004F9E;}	.st52{fill:#E45A9B;}	.st53{fill:url(#SVGID_1_);}	.st54{fill:url(#SVGID_00000040538222320417234480000009715268490286260108_);}	.st55{fill:url(#SVGID_00000142867713596704037160000007299722950216999064_);}	.st56{fill:url(#SVGID_00000014597590717965709390000009956778697899698622_);}	.st57{fill:#D3A787;}	.st58{fill:#3B2613;}	.st59{fill:#E5A96B;}	.st60{fill:none;stroke:#BD8658;stroke-width:1.5;stroke-linecap:round;stroke-linejoin:round;}	.st61{fill:#1D1D1B;}	.st62{fill:#8F5231;}	.st63{fill:#B73778;}	.st64{fill:#7A797A;}	.st65{clip-path:url(#SVGID_00000111162578761887287670000008325606360862832513_);fill:#FFFFFF;}	.st66{clip-path:url(#SVGID_00000137128845891163101940000000001877895559035828_);fill:#FFFFFF;}	.st67{clip-path:url(#SVGID_00000116913708886254102850000002115571611796536464_);fill:#FFFFFF;}	.st68{clip-path:url(#SVGID_00000144317743126271899900000009566489619851692416_);fill:#FFFFFF;}	.st69{clip-path:url(#SVGID_00000093881441600414960850000009359430157589790652_);fill:#FFFFFF;}	.st70{clip-path:url(#SVGID_00000127729217807569400050000000040036122159823790_);fill:#FFFFFF;}	.st71{fill:none;}	.st72{display:none;fill:#F7B573;}	.st73{fill:#E3122B;}	.st74{fill:#765C33;}	.st75{fill:#0F485B;}	.st76{fill:#0A6A86;}	.st77{fill:#311333;}	.st78{fill:#010101;}	.st79{fill:#14171A;}	.st80{fill:#02509C;}	.st81{fill:#4E4D4E;}	.st82{fill:#2A2A2A;}	.st83{fill:#363536;}	.st84{fill:#A16442;}	.st85{fill:#754A32;}	.st86{fill:#865439;}	.st87{fill:#633E2A;}	.st88{fill:#C1754E;}	.st89{fill:#925C3D;}	.st90{fill:#B1B1B1;}	.st91{fill:#F5F5F5;}	.st92{fill:#D9D9D9;}	.st93{fill:#0087C1;}	.st94{fill:#E8500E;}	.st95{fill:#E85111;}	.st96{fill:#374D5D;}	.st97{fill:#E17633;}	.st98{fill:#FFE424;}	.st99{fill:#65B22E;}	.st100{fill:#ECCB2D;}	.st101{fill:#D64B0B;}	.st102{fill:#010100;}	.st103{fill:#2E3D38;}	.st104{fill:#C5E4ED;}	.st105{fill:#A7D6E2;}	.st106{fill:#D9EDEF;}	.st107{fill:#BBE0EE;}	.st108{opacity:0.26;fill:#FFFFFF;}	.st109{fill:url(#SVGID_00000088840472171075481900000002430901380050726059_);}	.st110{fill:url(#SVGID_00000005951939675727911280000016547999027886575766_);}	.st111{fill:url(#SVGID_00000054969960047054148110000000361653194866545296_);}	.st112{fill:url(#SVGID_00000136383196173084461780000009344809446779951004_);}	.st113{fill:#119ED9;}	.st114{clip-path:url(#SVGID_00000080895651084345311660000003942394169099335100_);fill:#FFFFFF;}	.st115{clip-path:url(#SVGID_00000023984745770847445540000011871558230395649438_);fill:#FFFFFF;}	.st116{clip-path:url(#SVGID_00000075857155059255019110000007387598687374897809_);fill:#FFFFFF;}	.st117{clip-path:url(#SVGID_00000081636573871535958740000011653544163299676290_);fill:#FFFFFF;}	.st118{clip-path:url(#SVGID_00000112590941829762774530000003023711947243477424_);fill:#FFFFFF;}	.st119{clip-path:url(#SVGID_00000047046474736693907270000006623439971287722658_);fill:#FFFFFF;}	.st120{fill:#1978A3;}	.st121{enable-background:new    ;}	.st122{fill:#B48B5C;}	.st123{fill:#383838;}	.st124{fill:#CA1C19;}	.st125{opacity:0.66;fill:#FFFFFF;}	.st126{fill:#C09762;}	.st127{display:none;fill:#A37F55;}	.st128{fill:#F1A706;}	.st129{fill:#BDC5C2;}	.st130{fill:#4F5353;}	.st131{fill:#F7B574;}	.st132{fill:#E3A76B;}	.st133{fill:#8F5431;}	.st134{fill:#BE9575;}	.st135{fill:#848585;}	.st136{display:none;fill:#F7B574;}	.st137{fill:#F1F1F0;}	.st138{clip-path:url(#XMLID_00000108300323194206094220000011207724650152583102_);}	.st139{opacity:0.15;clip-path:url(#XMLID_00000108300323194206094220000011207724650152583102_);}	.st140{fill:#F9F9F9;}	.st141{fill:#6F6E71;}	.st142{fill:#E7E7E8;}	.st143{fill:#FFFFFC;}	.st144{fill:#F5A506;}	.st145{fill:#E75A9B;}	.st146{fill:#F8B573;}	.st147{fill:#727072;}	.st148{fill:#E9E9E9;}	.st149{fill:#FFFFFD;}	.st150{fill:#F6A505;}	.st151{fill:#09090A;}	.st152{fill:#00ADC3;}	.st153{fill:#39A935;}	.st154{fill:#C0181A;}	.st155{fill:#BF9662;}	.st156{fill:url(#SVGID_00000161615716161318392220000001408283375495563436_);}	.st157{fill:#E5A86A;}	.st158{fill:#F8BA7A;}	.st159{fill:#EDE6F3;}	.st160{fill:#1F331D;}	.st161{fill:#693C21;}	.st162{fill:#BD8657;}	.st163{fill:#1E1E1C;}	.st164{fill:#A37F55;}	.st165{display:none;opacity:0.97;}	.st166{display:inline;fill:#E45A9B;}	.st167{fill:#E9564A;}	.st168{fill:#E3E2E2;}	.st169{fill:#D2D1D1;}	.st170{fill:#565250;}	.st171{fill:#835529;}	.st172{fill:#9E6C35;}	.st173{fill:#DDDEDE;}	.st174{fill:#3861A9;}	.st175{fill:#7CB729;}	.st176{fill:#8FBE3C;}	.st177{fill:#1B78A0;}	.st178{fill:#EDECEC;}	.st179{clip-path:url(#XMLID_00000029760929701958865850000012596657203149995670_);}	.st180{opacity:0.15;clip-path:url(#XMLID_00000029760929701958865850000012596657203149995670_);}	.st181{clip-path:url(#XMLID_00000029760929701958865850000012596657203149995670_);fill:#E75A9B;}	.st182{clip-path:url(#XMLID_00000003801268008706901680000017119213236069038479_);}	.st183{opacity:0.15;clip-path:url(#XMLID_00000003801268008706901680000017119213236069038479_);}	.st184{fill:url(#SVGID_00000015313645200191236110000017170402691557132968_);}	.st185{fill:#1977A1;}	.st186{fill:#D2A686;}	.st187{fill:#CFB103;}	.st188{fill:#213D56;}	.st189{fill:#84BFE9;}	.st190{fill:#06519A;}	.st191{fill:#4E4D4D;}	.st192{fill:#4B4A49;}	.st193{fill:#FCEA1E;}	.st194{fill:#98CFEC;}	.st195{fill:#CDCDCC;}	.st196{fill:#005E88;}	.st197{fill:#BABAB9;}	.st198{fill:#DBC404;}	.st199{fill:#E1E0DE;}	.st200{fill:#B1CBCC;}	.st201{fill:#D4D3D3;}	.st202{fill:#EF8F06;}	.st203{fill:#F3F2F3;}	.st204{fill:#262626;}	.st205{fill:#9A9999;}	.st206{fill:#758A95;}	.st207{fill:#657B82;}	.st208{fill:#91AFC0;}	.st209{fill:#DDEFFA;}	.st210{fill:#BBBABA;}	.st211{fill:#D7D8D7;}	.st212{fill:#CCCACA;}	.st213{fill:#E7E6E7;}	.st214{fill:#3A2716;}	.st215{fill:#604E3E;}	.st216{fill:#CDCCCD;}	.st217{fill:#9B9A9A;}	.st218{fill:#758B96;}	.st219{fill:#657B83;}	.st220{fill:#92B0C1;}	.st221{fill:#98D0ED;}	.st222{fill:#706F6E;}	.st223{fill:#EE97C0;}	.st224{fill:#DEF0FB;}	.st225{fill:#F1D5AE;}	.st226{fill:#D09A62;}	.st227{fill:#F6A713;}	.st228{fill:#4E4C4C;}	.st229{fill:#E10B17;}	.st230{fill:#A2CAEC;}	.st231{fill:#823218;}	.st232{fill:#5B1D10;}	.st233{fill:#B07F48;}	.st234{fill:#916032;}	.st235{fill:#CAC8C8;}	.st236{fill:#1E1E1E;}	.st237{fill:#A4A3A2;}	.st238{clip-path:url(#XMLID_00000021805555470557462730000002015405672093073816_);}	.st239{opacity:0.15;clip-path:url(#XMLID_00000021805555470557462730000002015405672093073816_);}	.st240{clip-path:url(#XMLID_00000021805555470557462730000002015405672093073816_);fill:#009DE0;}	.st241{fill:#F6F7F8;}	.st242{fill:#2C3D52;}	.st243{fill:#5E6A7B;}	.st244{fill:#ACC9C6;}	.st245{fill:#E4342A;}	.st246{fill:#515461;}	.st247{fill:#727F8E;}	.st248{fill:#304155;}	.st249{fill:#E7531C;}	.st250{fill:#994592;}	.st251{fill:#F4F4F4;}	.st252{fill:#E2C29A;}	.st253{fill:#E8D7BD;}	.st254{fill:#555757;}	.st255{fill:#F5EEE3;}	.st256{fill:#F9EEDF;}	.st257{fill:#BEC0C0;}	.st258{fill:#C7AD89;}	.st259{fill:#A97246;}	.st260{fill:#DCDCDC;}	.st261{fill:#ACACAC;}	.st262{fill:#8B8B8B;}	.st263{fill:#3F494D;}	.st264{fill:#535F65;}	.st265{fill:#C2533C;}	.st266{fill:#93412D;}	.st267{fill:#D88968;}	.st268{fill:#5E6B72;}	.st269{fill:#323030;}	.st270{fill:#D9EFFB;}	.st271{fill:#95D5F5;}	.st272{fill:#FAC47F;}	.st273{fill:#E42327;}	.st274{opacity:0.69;fill:#009DE0;}	.st275{opacity:0.55;fill:#0671B8;}	.st276{fill:#19171C;}	.st277{fill:#8796A2;}	.st278{fill:#C4CDD3;}	.st279{fill:#406081;}	.st280{fill:#395B81;}	.st281{fill:#ADD3E3;}	.st282{opacity:0.5;fill:#ADD3E3;}	.st283{opacity:0.6;fill:#FFFFFF;}	.st284{fill:#818282;}	.st285{fill:#F2D207;}	.st286{fill:#C52E2E;}	.st287{fill:#FBCB43;}	.st288{fill:#DFA01B;}	.st289{fill:#364052;}	.st290{fill:#0F1621;}	.st291{fill:#133944;}	.st292{fill:#848C8C;}	.st293{fill:#889897;}	.st294{fill:#EEEDED;}	.st295{clip-path:url(#XMLID_00000103250636846830113120000011855420558705567107_);}	.st296{opacity:0.15;clip-path:url(#XMLID_00000103250636846830113120000011855420558705567107_);}	.st297{fill:#3F3F3F;}	.st298{fill-rule:evenodd;clip-rule:evenodd;fill:#3F3F3F;}	.st299{clip-path:url(#XMLID_00000116918847339453391500000014321653783515447438_);}	.st300{opacity:0.15;clip-path:url(#XMLID_00000116918847339453391500000014321653783515447438_);}	.st301{fill:#6E6E6E;}	.st302{fill:#D0CFD0;}	.st303{fill:#734C3F;}	.st304{fill:#F1F1F1;}	.st305{fill:#57392F;}	.st306{fill:#54575A;}	.st307{fill:#E6D9CF;}	.st308{fill:#CBA46E;}	.st309{fill:none;stroke:#F1F1F1;stroke-width:3.375;stroke-miterlimit:10;}	.st310{fill:#E5BE88;}	.st311{fill:#E8A054;}	.st312{fill:#B3B9B4;}	.st313{opacity:0.4;fill:#F9F9F9;}	.st314{fill:#2D7040;}	.st315{fill:#009A3E;}	.st316{clip-path:url(#XMLID_00000124150035952574469620000015304709323898774180_);}	.st317{fill:#009A3D;}	.st318{fill:#009B3E;}	.st319{fill:#343334;}	.st320{fill:#63C5E7;}	.st321{opacity:0.55;fill:#F9F9F9;}	.st322{fill:#82512C;}	.st323{fill:#A1B51D;}	.st324{fill:#F197BF;}	.st325{fill:#F8D1E4;}	.st326{fill:#FFF16A;}	.st327{fill:#CFD100;}	.st328{fill:#EF85A5;}	.st329{fill:#F6C2DB;}	.st330{fill:#28353A;}	.st331{display:none;fill:#1777A0;}	.st332{display:none;fill:#B73778;}	.st333{fill:#B3B3B2;}	.st334{fill:#F6B475;}	.st335{fill:#1C789F;}	.st336{fill:#E2A66B;}	.st337{fill:#635044;}	.st338{fill:#BA8356;}	.st339{opacity:0.1;fill:#604945;}	.st340{opacity:0.2;fill:#4C2513;}	.st341{fill:#C0282E;}	.st342{fill:#CCCBCB;}	.st343{fill:#611418;}	.st344{fill:#2D0E0F;}	.st345{fill:#F8AF3C;}	.st346{fill:#E1DAD4;}	.st347{fill:#1777A0;}	.st348{opacity:0.7;fill:#283480;}	.st349{opacity:0.7;}	.st350{fill:#283480;}	.st351{fill:#62BB46;}	.st352{fill:#5CAA3F;}	.st353{fill:#F15D22;}	.st354{fill:#FFE539;}	.st355{fill:#A3A0A0;}	.st356{fill:#8F8D8D;}	.st357{fill:#026739;}	.st358{fill:#01573A;}	.st359{fill:#8A8788;}	.st360{fill:#353535;}	.st361{fill:#F6921E;}	.st362{fill:#FFB533;stroke:#FFB533;stroke-width:2;}	.st363{fill:#FFB533;}	.st364{fill:#1E193D;}	.st365{fill:none;stroke:#F6921E;stroke-width:5.298;stroke-linecap:round;}	.st366{fill:none;stroke:#FFB533;stroke-width:5.298;stroke-linecap:round;}	.st367{fill:#F7B573;stroke:#BF9675;}	.st368{fill:#3CA336;}	.st369{fill:#4B4A4A;}	.st370{fill:#F6FAFB;}	.st371{clip-path:url(#XMLID_00000176013672350875983320000018213851442264272035_);}	.st372{fill:url(#SVGID_00000037682995904926919620000003939137148675520183_);}	.st373{fill:#221E20;}	.st374{fill:url(#SVGID_00000078035734375250895010000013850733159394112174_);}	.st375{fill:url(#SVGID_00000021109074581824524350000009378509275705357477_);}	.st376{opacity:0.3;fill:url(#SVGID_00000040571044675006529950000011825090123369242245_);}	.st377{opacity:0.3;fill:url(#SVGID_00000170972857179163246550000005240916739128907945_);}	.st378{opacity:0.7;fill:url(#SVGID_00000033352046772034109800000003498428545980689282_);}	.st379{opacity:0.3;fill:url(#SVGID_00000055671270236389751860000009585463307695565496_);}	.st380{fill:url(#SVGID_00000133497640233695145730000017994003430430641308_);}	.st381{clip-path:url(#SVGID_00000023239105535923523670000005278266429005906603_);fill:#575756;}	.st382{clip-path:url(#SVGID_00000023239105535923523670000005278266429005906603_);fill:#FFFFFF;}			.st383{clip-path:url(#SVGID_00000023239105535923523670000005278266429005906603_);fill:none;stroke:#575756;stroke-width:0.351;stroke-miterlimit:10;}	.st384{fill:url(#SVGID_00000068635683352173595580000005033878139572565639_);}	.st385{fill:url(#SVGID_00000034809077589847892380000015073678954370062756_);}	.st386{fill:url(#SVGID_00000034773440655791939820000003009694849778421376_);}	.st387{opacity:0.3;fill:url(#SVGID_00000005235406411821108790000015975149448383272083_);}	.st388{opacity:0.3;fill:url(#SVGID_00000155862446419637575140000010560973271075932069_);}	.st389{opacity:0.7;fill:url(#SVGID_00000178885739135379567870000015350423057868594347_);}	.st390{opacity:0.3;fill:url(#SVGID_00000021108350337839644660000006706096383417577356_);}	.st391{fill:url(#SVGID_00000148639910970775267740000003555646576900827802_);}	.st392{clip-path:url(#SVGID_00000055708913301632300180000000106296342980426416_);fill:#575756;}	.st393{clip-path:url(#SVGID_00000055708913301632300180000000106296342980426416_);fill:#FFFFFF;}			.st394{clip-path:url(#SVGID_00000055708913301632300180000000106296342980426416_);fill:none;stroke:#575756;stroke-width:0.351;stroke-miterlimit:10;}	.st395{fill:#2C2D2C;}	.st396{fill:#212320;}	.st397{fill:#2C4B8C;}	.st398{fill:#325593;}	.st399{fill:#535740;}	.st400{fill:#DD313E;}	.st401{fill:#E5974D;}	.st402{fill:#0D0C0D;}	.st403{fill:#1D1A1D;}	.st404{fill:#B16D3B;}	.st405{fill:#E1C6AC;}	.st406{fill:#FB9E1C;}	.st407{fill:#EAD9B2;}	.st408{fill:#F9BE3C;}	.st409{clip-path:url(#XMLID_00000101104337395692588410000016467722035460268954_);}</style><g>	<path id="XMLID_252_" class="st1" d="M214,379.4c-5.1,0-9.1-4.1-9.1-9.1c0-5.1,4.1-9.1,9.1-9.1c5,0,9.1,4.1,9.1,9.1  C223.1,375.3,219,379.4,214,379.4z"></path>	<path id="XMLID_251_" class="st1" d="M197.7,370.3c0,4.6-3.7,8.3-8.3,8.3c-4.6,0-8.2-3.7-8.3-8.3c0-4.6,3.7-8.3,8.2-8.3  C194,362,197.7,365.7,197.7,370.3z"></path>	<polygon id="XMLID_250_" class="st1" points="181.2,370.3 180.3,396.4 199.4,395.6 197.7,370.3  "></polygon>	<polygon id="XMLID_249_" class="st1" points="214,361.1 189.4,362 189.4,378.5 214,379.4  "></polygon>	<path id="XMLID_248_" class="st5" d="M199.4,395.6l0.1,10.4H161c0,0,2.3-10,15.5-10.4c13.2-0.4,21.7,0,21.7,0"></path>	<rect id="XMLID_247_" x="207.5" y="300.5" class="st4" width="13" height="24.6"></rect>	<path id="XMLID_246_" class="st3" d="M214,320.1c8.6,0,15.6,7,15.6,15.6s-7,15.6-15.6,15.6c-8.6,0-15.6-7-15.6-15.6  C198.4,327.1,205.4,320.1,214,320.1z"></path>	<polygon id="XMLID_245_" class="st3" points="198.4,335.7 203,357.7 224.3,370.9 229.6,335.7  "></polygon>	<path id="XMLID_244_" class="st1" d="M198.4,335.7h1.3c0.6-7.6,6.7-13.7,14.3-14.3v-1.3C205.4,320.1,198.4,327.1,198.4,335.7z"></path>	<polygon id="XMLID_243_" class="st1" points="203.1,321 220.5,316.4 222.8,322.8 203.3,328.3  "></polygon>	<rect id="XMLID_242_" x="201.1" y="334.8" class="st1" width="3.8" height="2.1"></rect>			<rect id="XMLID_241_" x="210.2" y="353.7" transform="matrix(0.5258 -0.8506 0.8506 0.5258 -210.8111 354.4215)" class="st1" width="4.6" height="25.1"></rect>	<path id="XMLID_240_" class="st0" d="M239.3,274.2c0,22-15.3,39.9-34.2,39.9c-18.9,0-34.2-17.9-34.2-39.9c0-22,15.3-39.9,34.2-39.9  C224,234.3,239.3,252.2,239.3,274.2z"></path>	<path class="st8" d="M180.7,301.4c-0.4,0-0.8-0.3-0.8-0.8s0.3-0.8,0.8-0.8c4.3,0,8.2-2.6,9.7-6.4c0.2-0.4,0.6-0.6,1-0.4  c0.4,0.2,0.6,0.6,0.4,1C190,298.6,185.6,301.4,180.7,301.4z"></path>	<path id="XMLID_239_" class="st11" d="M184.7,282.2c0,3.8-1.7,6.8-3.7,6.8c-2,0-3.7-3.1-3.7-6.8c0-3.8,1.6-6.8,3.7-6.8  C183,275.4,184.7,278.5,184.7,282.2z"></path>	<polygon id="XMLID_238_" class="st26" points="173.3,269.8 191.2,269.8 186,265.5  "></polygon>	<polygon id="XMLID_237_" class="st0" points="171.5,281.6 167.3,288.5 174.6,292.3 175.2,282.5  "></polygon>	<path id="XMLID_236_" class="st26" d="M175.2,247.7c-2.7,5.3,3.9,20.1,13.4,13c2.6-2,5.1-4.4,7-7.4c0,0,1.8,11.6,12.2,15.2v13.2  h3.6v-12.8c0,0,1.6-6,6-6c4.4,0,8.6,5.2,8.6,10.8c0,5.6-4.2,12.6-9.2,12.6l0.3,6.6l4.7,7.6l9.3,3.4c0,0,15.7-18.5,15.7-36.9  c0-22.9-15.8-35.6-23.2-35.6l-22.4-1.8C201.2,229.4,184.3,229.6,175.2,247.7z"></path>	<path id="XMLID_235_" class="st45" d="M193.8,240c0,0-3.3,16.5-19.3,19.6C174.5,259.5,188,249.1,193.8,240z"></path>	<path id="XMLID_234_" class="st45" d="M190.2,238.2c0,0-2.8,10-14.3,11.8C175.9,250,185.7,244,190.2,238.2z"></path>	<path id="XMLID_233_" class="st45" d="M201,240c0,0,6.5,16.5,38.1,19.6C239.1,259.5,212.5,249.1,201,240z"></path>	<path id="XMLID_232_" class="st45" d="M208,238.2c0,0,5.4,10,28.2,11.8C236.3,250,216.9,244,208,238.2z"></path>	<path id="XMLID_231_" class="st0" d="M193.5,348.1c-3.4,0.4-6.5-2.1-6.9-5.5c-0.4-3.4,2.1-6.5,5.5-6.9c3.4-0.4,6.5,2.1,6.9,5.5  C199.4,344.6,197,347.7,193.5,348.1z"></path>	<polygon id="XMLID_230_" class="st0" points="218,332.7 210,321.4 189.3,336.8 192.8,341.9 196.4,347  "></polygon>	<polygon id="XMLID_229_" class="st0" points="166,350.2 164.9,340 192.2,335.7 192.8,341.9 193.5,348.1  "></polygon>	<path id="XMLID_228_" class="st1" d="M218,332.7c-3.1,2.2-7.4,1.4-9.6-1.7c-2.2-3.1-1.4-7.4,1.7-9.6c3.1-2.2,7.4-1.4,9.6,1.7  C221.8,326.2,221.1,330.5,218,332.7z"></path>	<polygon id="XMLID_227_" class="st0" points="210.1,321.3 217.9,332.7 197.3,346 193.8,340.8 190.2,335.7  "></polygon>	<polygon id="XMLID_226_" class="st1" points="210.1,321.3 217.9,332.7 199.6,345.5 195.6,339.6 191.6,333.7  "></polygon>	<path id="XMLID_225_" class="st1" d="M210.1,321.3c-3.1,2.2-4,6.5-1.8,9.6c2.2,3.1,6.5,4,9.6,1.8c3.1-2.2,4-6.5,1.8-9.6  C217.5,320,213.2,319.1,210.1,321.3z"></path>	<polygon id="XMLID_224_" class="st0" points="165.1,341.4 165.1,341.4 164.9,340 157.3,340.8 156.6,342.5 152.1,343.7 152.9,350.8   158.7,351 166,350.2  "></polygon>	<rect id="XMLID_223_" x="158.1" y="405" class="st1" width="81.7" height="7.3"></rect>	<path id="XMLID_222_" class="st204" d="M303,382.9c-12.2,0-22.1,9.9-22.1,22.1c0,2.6,0.5,5,1.3,7.3h41.5c0.8-2.3,1.3-4.8,1.3-7.3  C325.1,392.8,315.2,382.9,303,382.9z"></path>	<path id="XMLID_221_" class="st217" d="M323.1,405c0,11.1-9,20-20,20c-11.1,0-20-9-20-20c0-11.1,9-20,20-20  C314.1,384.9,323.1,393.9,323.1,405z"></path>	<g>		<path id="XMLID_220_" class="st5" d="M322.2,405c0,10.6-8.6,19.2-19.2,19.2c-10.6,0-19.2-8.6-19.2-19.2c0-10.6,8.6-19.2,19.2-19.2   C313.6,385.8,322.2,394.4,322.2,405z"></path>		<path id="XMLID_219_" class="st5" d="M316.8,405c0,7.6-6.2,13.8-13.8,13.8c-7.6,0-13.8-6.2-13.8-13.8c0-7.6,6.2-13.8,13.8-13.8   C310.6,391.2,316.8,397.3,316.8,405z"></path>		<path id="XMLID_218_" class="st5" d="M315.6,405c0,7-5.7,12.6-12.6,12.6c-7,0-12.6-5.7-12.6-12.6c0-7,5.7-12.6,12.6-12.6   C310,392.3,315.6,398,315.6,405z"></path>		<path id="XMLID_217_" class="st218" d="M311.4,405c0,4.6-3.8,8.4-8.4,8.4c-4.6,0-8.4-3.8-8.4-8.4c0-4.6,3.8-8.4,8.4-8.4   C307.6,396.5,311.4,400.3,311.4,405z"></path>		<path id="XMLID_216_" class="st219" d="M309.6,405c0,3.6-3,6.6-6.6,6.6c-3.6,0-6.6-2.9-6.6-6.6c0-3.6,3-6.6,6.6-6.6   C306.6,398.4,309.6,401.3,309.6,405z"></path>		<path id="XMLID_215_" class="st220" d="M308.9,405c0,3.2-2.6,5.8-5.8,5.8c-3.2,0-5.8-2.6-5.8-5.8c0-3.2,2.6-5.8,5.8-5.8   C306.2,399.1,308.9,401.7,308.9,405z"></path>	</g>	<g>		<path id="XMLID_214_" class="st204" d="M125,382.9c-12.2,0-22.1,9.9-22.1,22.1c0,2.6,0.5,5,1.3,7.3h41.5c0.8-2.3,1.3-4.8,1.3-7.3   C147,392.8,137.2,382.9,125,382.9z"></path>		<path id="XMLID_213_" class="st217" d="M145,405c0,11.1-9,20-20,20c-11.1,0-20-9-20-20c0-11.1,9-20,20-20   C136.1,384.9,145,393.9,145,405z"></path>		<g>			<path id="XMLID_212_" class="st5" d="M144.2,405c0,10.6-8.6,19.2-19.2,19.2c-10.6,0-19.2-8.6-19.2-19.2    c0-10.6,8.6-19.2,19.2-19.2C135.6,385.8,144.2,394.4,144.2,405z"></path>			<path id="XMLID_211_" class="st5" d="M138.8,405c0,7.6-6.2,13.8-13.8,13.8c-7.6,0-13.8-6.2-13.8-13.8c0-7.6,6.2-13.8,13.8-13.8    C132.6,391.2,138.8,397.3,138.8,405z"></path>			<path id="XMLID_210_" class="st5" d="M137.6,405c0,7-5.7,12.6-12.6,12.6c-7,0-12.6-5.7-12.6-12.6c0-7,5.7-12.6,12.6-12.6    C132,392.3,137.6,398,137.6,405z"></path>			<path id="XMLID_209_" class="st218" d="M133.4,405c0,4.6-3.8,8.4-8.4,8.4c-4.6,0-8.4-3.8-8.4-8.4c0-4.6,3.8-8.4,8.4-8.4    C129.6,396.5,133.4,400.3,133.4,405z"></path>			<path id="XMLID_208_" class="st219" d="M131.6,405c0,3.6-3,6.6-6.6,6.6c-3.6,0-6.6-2.9-6.6-6.6c0-3.6,3-6.6,6.6-6.6    C128.6,398.4,131.6,401.3,131.6,405z"></path>			<path id="XMLID_207_" class="st220" d="M130.8,405c0,3.2-2.6,5.8-5.8,5.8c-3.2,0-5.8-2.6-5.8-5.8c0-3.2,2.6-5.8,5.8-5.8    C128.2,399.1,130.8,401.7,130.8,405z"></path>		</g>	</g>	<polygon id="XMLID_206_" class="st221" points="125,325 129.4,325 154.3,208.3 149.8,208.3  "></polygon>	<polygon id="XMLID_205_" class="st220" points="129.4,325 133.9,325 160.6,199.6 156.1,199.6  "></polygon>	<rect id="XMLID_204_" x="124.7" y="325" class="st1" width="9.1" height="48.7"></rect>	<rect id="XMLID_203_" x="257.4" y="208.5" class="st1" width="9.1" height="161.8"></rect>	<polygon id="XMLID_202_" class="st2" points="151.8,395.8 112.1,395.8 112.1,375.2 133.9,372.5  "></polygon>	<rect id="XMLID_201_" x="239.8" y="325" class="st1" width="84.4" height="45.3"></rect>	<rect id="XMLID_200_" x="231.1" y="325" class="st222" width="8.7" height="61.1"></rect>	<rect id="XMLID_199_" x="200.1" y="379.4" class="st222" width="39.7" height="6.7"></rect>	<path id="XMLID_198_" class="st1" d="M169.7,265.3c0-23.1,17.4-41.8,38.8-41.8c21.5,0,38.8,18.7,38.8,41.8H169.7z"></path>	<path id="XMLID_197_" class="st2" d="M154.6,265.3c0-9.2,13.8-13.5,17.2-13.5c18.5,0,32.2,6,39,13.5H154.6z"></path>	<path id="XMLID_196_" class="st1" d="M202.2,265.3c0,0-6,29.7,40,29.7c0,0,5.1-10,5.1-29.7l-22.1-14L202.2,265.3z"></path>	<path class="st230" d="M237.8,250.2c-0.4,0-0.7-0.2-0.9-0.5c-9.2-18.1-26-19.9-26.2-19.9c-0.6,0-1-0.5-0.9-1.1c0-0.6,0.5-1,1.1-0.9  c0.7,0.1,18,1.8,27.8,21c0.3,0.5,0.1,1.1-0.4,1.3C238.1,250.2,238,250.2,237.8,250.2z"></path>	<polygon id="XMLID_194_" class="st5" points="207.4,405 239.8,405 239.8,386.1 203.3,386.1  "></polygon>	<polygon id="XMLID_193_" class="st1" points="124.7,366.4 124.7,373.7 158.1,412.3 158.1,405  "></polygon>	<polygon id="XMLID_192_" class="st1" points="131,366.4 131,373.7 164.4,412.3 164.4,405  "></polygon>	<polygon id="XMLID_191_" class="st1" points="133.9,372.5 128.6,373.7 162,412.3 167.3,411.1  "></polygon>	<polygon id="XMLID_190_" class="st1" points="280.8,208.5 149.8,208.3 151.7,199.6 280.8,199.6  "></polygon>	<polygon id="XMLID_189_" class="st224" points="154.3,208.3 150.3,226.9 142.2,244.3 149.8,208.3  "></polygon>	<rect id="XMLID_188_" x="239.8" y="325" class="st220" width="84.4" height="4.4"></rect>	<polygon id="XMLID_187_" class="st1" points="133.9,372.5 131.6,368.1 126.7,371.2 130.5,375.9 133.6,374.7  "></polygon>	<rect id="XMLID_186_" x="239.8" y="370.3" class="st1" width="26.8" height="42"></rect>	<rect id="XMLID_185_" x="266.6" y="370.3" class="st1" width="14.3" height="42"></rect>	<rect id="XMLID_184_" x="266.6" y="370.3" class="st1" width="57.6" height="11.1"></rect>	<path id="XMLID_183_" class="st2" d="M303,370.2c-19.2,0-34.8,15.6-34.8,34.8c0,2.5,0.3,5,0.8,7.3h13.2c-0.8-2.3-1.3-4.8-1.3-7.3  c0-12.2,9.9-22.1,22.1-22.1c12.2,0,22.1,9.9,22.1,22.1c0,2.6-0.5,5-1.3,7.3h13.2c0.5-2.4,0.8-4.8,0.8-7.3  C337.8,385.8,322.2,370.2,303,370.2z"></path>	<polygon id="XMLID_182_" class="st2" points="144.2,372.5 133.9,372.5 133.9,326.3 148.7,326.3  "></polygon>	<circle id="XMLID_181_" class="st192" cx="141.3" cy="335.7" r="4.3"></circle>	<path id="XMLID_180_" class="st222" d="M139.3,334.4c-0.7,1.1-0.4,2.6,0.6,3.3l16.9,11.3l2.6-3.9l-16.9-11.3  C141.5,333,140.1,333.3,139.3,334.4z"></path>	<polygon id="XMLID_179_" class="st0" points="165.1,341.4 165.1,341.4 164.9,340 157.3,340.8 156.6,342.5 152.1,343.7 152.9,350.8   158.7,351 166,350.2  "></polygon>	<polygon id="XMLID_178_" class="st1" points="133.9,372.5 131.4,375.6 154.7,403.9 162,405 162,372.5  "></polygon>	<g id="XMLID_175_">		<rect id="XMLID_177_" x="275.2" y="255.8" class="st155" width="80.8" height="69.2"></rect>		<polygon id="XMLID_176_" class="st122" points="356.1,325 275.2,325 356.1,255.8   "></polygon>	</g>	<g id="XMLID_172_">		<rect id="XMLID_174_" x="291.2" y="221.3" class="st155" width="40.4" height="34.6"></rect>		<polygon id="XMLID_173_" class="st122" points="331.6,255.9 291.2,255.9 331.6,221.3   "></polygon>	</g>	<g id="XMLID_169_">		<rect id="XMLID_171_" x="169.1" y="152.5" class="st155" width="111.1" height="46.7"></rect>		<polygon id="XMLID_170_" class="st122" points="280.2,199.2 169.1,199.2 280.2,152.5   "></polygon>	</g>	<g id="XMLID_166_">					<rect id="XMLID_168_" x="253.2" y="106.1" transform="matrix(0.9908 0.1355 -0.1355 0.9908 20.1296 -36.8695)" class="st155" width="55.6" height="46.7"></rect>		<polygon id="XMLID_167_" class="st122" points="305.3,156.4 250.3,148.8 311.6,110.1   "></polygon>	</g>	<g id="XMLID_163_">		<rect id="XMLID_165_" x="337.8" y="222.4" class="st155" width="40.4" height="34.6"></rect>		<polygon id="XMLID_164_" class="st122" points="378.2,257 337.8,257 378.2,222.4   "></polygon>	</g>	<g id="XMLID_160_">		<rect id="XMLID_162_" x="311.4" y="171.2" class="st155" width="57.4" height="51.2"></rect>		<polygon id="XMLID_161_" class="st122" points="368.8,222.4 311.4,222.4 368.8,171.2   "></polygon>	</g>	<g id="XMLID_157_">		<rect id="XMLID_159_" x="308.9" y="129.4" class="st155" width="88.2" height="42.5"></rect>		<polygon id="XMLID_158_" class="st122" points="397.1,171.8 308.9,171.8 397.1,129.4   "></polygon>	</g>	<g id="XMLID_154_">					<rect id="XMLID_156_" x="167.3" y="79.1" transform="matrix(0.9942 -0.1074 0.1074 0.9942 -11.0157 22.9773)" class="st155" width="80.8" height="69.2"></rect>		<polygon id="XMLID_155_" class="st122" points="251.7,143.8 171.3,152.5 244.2,75   "></polygon>	</g></g></svg>