<svg xmlns="http://www.w3.org/2000/svg" viewBox="0 0 411.55 101.92"><defs><style>.cls-1{fill:#fff;}</style></defs><g id="Laag_2" data-name="Laag 2"><g id="Laag_1-2" data-name="Laag 1"><rect class="cls-1" width="41.33" height="41.33"/><rect class="cls-1" y="60.59" width="41.33" height="41.33"/><rect class="cls-1" x="60.7" width="41.33" height="41.33"/><rect class="cls-1" x="60.7" y="60.59" width="41.33" height="41.33"/><path class="cls-1" d="M390,23.2A10.77,10.77,0,1,1,400.81,34,10.81,10.81,0,0,1,390,23.2Zm20,0a9.22,9.22,0,1,0-9.22,9.33A9.29,9.29,0,0,0,410,23.2Zm-5.67,6.26A4.71,4.71,0,0,1,404,27.4c0-2.62-.74-3.16-3.16-3.16h-3.07v5.22h-1.56V17.14h5.39c2.45,0,4.15,1.12,4.15,3.35a2.82,2.82,0,0,1-2.29,3v.06c1.47.42,2.06,1.15,2.06,3.52a4.91,4.91,0,0,0,.39,2.4Zm-3.24-6.63c1.89,0,3.07-.7,3.07-2.25,0-1.36-1-2-2.93-2h-3.49v4.26Z"/><path class="cls-1" d="M197.84,71V47.26c0-7.7-3.7-13.1-11-13.1-7.11,0-11,5.33-11,13.25V71H170.6V47.33c0-7.92-3.85-13.17-11-13.17s-11,5.25-11,13.17V71h-5.18V30.53h5.18v4.66a12.67,12.67,0,0,1,11-5.69,15.12,15.12,0,0,1,13.62,7.77c3.18-5,7.7-7.77,13.62-7.77,10.44,0,16.21,7.69,16.21,17.24V71Z"/><path class="cls-1" d="M213,51A21.17,21.17,0,1,1,234.11,72,21.42,21.42,0,0,1,213,51Zm37.15-.52a16.3,16.3,0,0,0-16.06-16.36c-8.81,0-15.91,7.62-15.91,16.8a16.29,16.29,0,0,0,16,16.36C243.29,67.32,250.17,59.77,250.17,50.52Z"/><path class="cls-1" d="M295.77,71V48.44c0-9.1-5.47-14.28-12.58-14.28-7.85,0-12.66,6-12.66,13.91V71h-5.18V30.53h5.18v5.18h.15a14.58,14.58,0,0,1,12.44-6.21c11.17,0,17.84,7.69,17.84,18.94V71Z"/><path class="cls-1" d="M315.54,71V35.19H307V30.53h8.51V16.25h5.18V30.53h9.7v4.66h-9.7V71Z"/><path class="cls-1" d="M375.57,71v-7.1h-.15A18.64,18.64,0,0,1,359.66,72c-12.14,0-21.77-9.18-21.77-21.31s9.92-21.17,21.77-21.17c6.73,0,12.51,3,15.76,8.14h.15V30.53h5.18V71Zm.3-20.21a16.46,16.46,0,0,0-16.29-16.65c-9.32,0-16.5,7.1-16.5,16.73a16.11,16.11,0,0,0,16.58,16.43A16.32,16.32,0,0,0,375.87,50.81Z"/></g></g></svg>